<svg width="106" height="22" viewBox="0 0 106 22" fill="none" xmlns="http://www.w3.org/2000/svg">
<g clip-path="url(#clip0_16_2800)">
<path d="M102.255 21.295C101.135 21.295 100.264 20.9816 99.6407 20.3549C99.0177 19.7187 98.7063 18.7738 98.7063 17.5202L98.681 10.2373C98.681 9.61909 98.9985 9.08142 99.5523 8.93224H97.052V5.77488H98.7049L99.3755 0.663574H102.141V5.77488H105.273V8.93224H102.141V16.4117C102.141 17.0104 102.229 17.4267 102.406 17.6606C102.591 17.8945 102.932 18.0114 103.429 18.0114C103.825 18.0114 104.174 18.0067 104.477 17.9974C104.78 17.988 105.058 17.9693 105.311 17.9412V21.0846C104.949 21.1968 104.486 21.2576 103.922 21.267C103.358 21.2857 102.802 21.295 102.255 21.295Z" fill="white"/>
<path d="M90.9342 21.3361C89.8146 21.3361 88.838 21.1537 88.0046 20.7888C87.1711 20.424 86.5145 19.872 86.0346 19.133C85.5632 18.3846 85.3022 17.4303 85.2517 16.2703H88.636C88.7286 17.0374 88.9769 17.594 89.381 17.9402C89.7851 18.277 90.3071 18.4454 90.9469 18.4454C91.3341 18.4454 91.6919 18.3986 92.0202 18.305C92.3485 18.2115 92.6095 18.0524 92.8032 17.8279C93.0052 17.6034 93.1062 17.2947 93.1062 16.9018C93.1062 16.6024 93.0431 16.3592 92.9168 16.1721C92.7905 15.9756 92.6011 15.8119 92.3485 15.6809C92.1044 15.5406 91.8013 15.4096 91.4393 15.288C91.0773 15.1664 90.6606 15.0307 90.1892 14.8811C89.3558 14.6098 88.5897 14.287 87.8909 13.9128C87.1922 13.5292 86.6324 13.0241 86.2114 12.3973C85.7905 11.7705 85.58 10.9519 85.58 9.94155C85.58 8.4915 86.0599 7.39227 87.0196 6.64386C87.9793 5.88609 89.2295 5.50721 90.7701 5.50721C91.713 5.50721 92.5632 5.65221 93.3209 5.94222C94.0786 6.23223 94.7015 6.73273 95.1898 7.44372C95.6865 8.15471 96.0022 9.14168 96.1369 10.4046L92.7779 10.3906C92.6769 9.81057 92.5169 9.37556 92.298 9.08555C92.0876 8.78619 91.8434 8.58505 91.5656 8.48214C91.2962 8.37924 91.01 8.32778 90.7069 8.32778C90.3702 8.32778 90.0671 8.38859 89.7977 8.51021C89.5368 8.62247 89.3347 8.79086 89.1916 9.01539C89.0485 9.23991 88.9769 9.51121 88.9769 9.82928C88.9769 10.2222 89.0779 10.5496 89.28 10.8116C89.4904 11.0735 89.8062 11.3027 90.2271 11.4992C90.6564 11.6863 91.191 11.8874 91.8308 12.1026C92.3022 12.2429 92.8074 12.4066 93.3461 12.5937C93.8849 12.7808 94.3943 13.0334 94.8741 13.3515C95.354 13.6602 95.7454 14.0812 96.0485 14.6144C96.36 15.1383 96.5157 15.8212 96.5157 16.6632C96.5157 18.132 96.0106 19.278 95.0004 20.1012C93.9902 20.9245 92.6348 21.3361 90.9342 21.3361Z" fill="white"/>
<path fill-rule="evenodd" clip-rule="evenodd" d="M74.7537 20.3967C75.7303 21.0048 76.9004 21.3088 78.2642 21.3088C79.3671 21.3088 80.331 21.1124 81.156 20.7194C81.9894 20.3265 82.6503 19.7605 83.1386 19.0215C83.6353 18.2731 83.9215 17.389 83.9973 16.3693H80.6509C80.5499 16.8932 80.3015 17.3376 79.9059 17.7024C79.5102 18.0673 78.9335 18.2497 78.1758 18.2497C77.3172 18.2497 76.6184 17.9223 76.0796 17.2674C75.5493 16.6125 75.242 15.5835 75.1578 14.1802H84.2246C84.2414 13.8715 84.254 13.6049 84.2625 13.3803C84.2793 13.1558 84.2877 12.9173 84.2877 12.6647C84.2877 11.1117 84.0562 9.802 83.5932 8.73552C83.1302 7.65968 82.4525 6.85046 81.5601 6.30786C80.6761 5.75591 79.5944 5.47993 78.3148 5.47993C77.0015 5.47993 75.8481 5.78865 74.8547 6.40609C73.8698 7.02353 73.0995 7.92162 72.5438 9.10037C71.9966 10.2791 71.723 11.7198 71.723 13.4224C71.723 15.1064 71.984 16.5377 72.506 17.7164C73.0279 18.8858 73.7772 19.7793 74.7537 20.3967ZM80.8908 11.8087H76.6479C76.1933 11.8087 75.8439 11.8976 75.5998 12.0753C75.3556 12.253 75.1999 12.5852 75.1325 13.0716C75.1746 11.659 75.4356 10.5644 75.9155 9.78797C76.4037 9.00214 77.1572 8.60922 78.1758 8.60922C79.1019 8.60922 79.7754 8.88052 80.1963 9.42312C80.6256 9.96572 80.8571 10.7609 80.8908 11.8087Z" fill="white"/>
<path d="M55.5417 21.0974V0.693885H59.8352L65.543 12.9164L67.0709 17.1963H67.172L66.6668 12.2849V0.693885H70.1269V21.0974H65.8082L60.1383 8.91705L58.6734 4.9037H58.5472L59.0018 10.3484V21.0974H55.5417Z" fill="white"/>
<path fill-rule="evenodd" clip-rule="evenodd" d="M42.826 20.2845C43.6173 20.9487 44.577 21.2808 45.7051 21.2808C46.3281 21.2808 46.8543 21.1732 47.2836 20.958C47.7214 20.7335 48.0834 20.4435 48.3696 20.088C48.6558 19.7232 48.8831 19.3209 49.0515 18.8812C49.2199 18.4415 49.3419 18.0065 49.4177 17.5762L49.4281 17.526L49.4303 21.0984H52.8904V0.689843H49.4177L49.4221 7.82174C49.3264 7.56659 49.1986 7.30989 49.0389 7.05165C48.7611 6.6026 48.3654 6.23308 47.8519 5.94307C47.3383 5.6437 46.6859 5.49402 45.8945 5.49402C44.8843 5.49402 43.9667 5.79806 43.1417 6.40615C42.3167 7.01423 41.66 7.90297 41.1717 9.07236C40.6835 10.2418 40.4393 11.6731 40.4393 13.3664C40.4393 14.9287 40.6414 16.3039 41.0455 17.492C41.4495 18.6801 42.0431 19.6109 42.826 20.2845ZM49.4236 10.2853L49.4275 16.5446L49.4177 16.5237C49.3756 16.7202 49.2451 16.9447 49.0262 17.1973C48.8158 17.4405 48.5253 17.6557 48.1549 17.8428C47.7929 18.0205 47.3552 18.1094 46.8416 18.1094C45.9408 18.1094 45.2337 17.7118 44.7202 16.9166C44.2066 16.1121 43.9499 14.9521 43.9499 13.4365C43.9499 11.7994 44.2235 10.6019 44.7707 9.84416C45.3179 9.08639 46.0503 8.70751 46.9679 8.70751C47.4646 8.70751 47.8771 8.77767 48.2054 8.918C48.5422 9.05833 48.8074 9.25011 49.001 9.49334C49.203 9.72722 49.3419 9.99384 49.4177 10.2932L49.4236 10.2853Z" fill="white"/>
<path d="M35.2542 21.0978V0.693885H38.7521V21.0978H35.2542Z" fill="white"/>
<path fill-rule="evenodd" clip-rule="evenodd" d="M24.1885 20.3967C25.1651 21.0048 26.3353 21.3088 27.6991 21.3088C28.8019 21.3088 29.7658 21.1124 30.5908 20.7194C31.4243 20.3265 32.0851 19.7605 32.5734 19.0215C33.0701 18.2731 33.3563 17.389 33.4321 16.3693H30.0857C29.9847 16.8932 29.7364 17.3376 29.3407 17.7024C28.945 18.0673 28.3683 18.2497 27.6107 18.2497C26.752 18.2497 26.0532 17.9223 25.5145 17.2674C24.9841 16.6125 24.6768 15.5835 24.5926 14.1802H33.6594C33.6762 13.8715 33.6889 13.6049 33.6973 13.3803C33.7141 13.1558 33.7225 12.9173 33.7225 12.6647C33.7225 11.1117 33.491 9.802 33.028 8.73552C32.565 7.65968 31.8873 6.85046 30.9949 6.30786C30.111 5.75591 29.0292 5.47993 27.7496 5.47993C26.4363 5.47993 25.2829 5.78865 24.2896 6.40609C23.3046 7.02353 22.5343 7.92162 21.9787 9.10037C21.4315 10.2791 21.1579 11.7198 21.1579 13.4224C21.1579 15.1064 21.4188 16.5377 21.9408 17.7164C22.4627 18.8858 23.212 19.7793 24.1885 20.3967ZM30.3257 11.8087H26.0827C25.6281 11.8087 25.2787 11.8976 25.0346 12.0753C24.7905 12.253 24.6347 12.5852 24.5674 13.0716C24.6095 11.659 24.8704 10.5644 25.3503 9.78797C25.8386 9.00214 26.592 8.60922 27.6107 8.60922C28.5367 8.60922 29.2102 8.88052 29.6311 9.42312C30.0605 9.96572 30.292 10.7609 30.3257 11.8087Z" fill="white"/>
<path d="M10.4182 21.0974V14.5723L15.8796 2.44659C15.981 2.6791 16.117 2.89011 16.2875 3.07962C16.7085 3.54738 17.222 3.78125 17.8281 3.78125C18.4258 3.78125 18.9352 3.54738 19.3561 3.07962C19.7854 2.61186 20.0001 2.01313 20.0001 1.28343C20.0001 1.07595 19.9828 0.879434 19.948 0.693885H12.6154L10.3551 6.50343L8.71344 10.615H8.52402L6.90766 6.48939L4.64728 0.693885H0.59375L6.84452 14.5445V21.0974H10.4182Z" fill="white"/>
<path d="M16.0729 21.0976V5.7739H19.5581L19.5455 21.0976H16.0729Z" fill="white"/>
</g>
<defs>
<clipPath id="clip0_16_2800">
<rect width="104.717" height="20.6725" fill="white" transform="translate(0.59375 0.663574)"/>
</clipPath>
</defs>
</svg>
