<svg width="27" height="30" viewBox="0 0 27 30" fill="none" xmlns="http://www.w3.org/2000/svg">
<g clip-path="url(#clip0_16_2799)">
<path fill-rule="evenodd" clip-rule="evenodd" d="M11.876 0.96067C11.876 0.817083 11.9814 0.700684 12.1114 0.700684H15.172C15.302 0.700684 15.4074 0.817083 15.4074 0.96067V7.74144C15.4074 7.99993 15.7119 8.10004 15.8399 7.88363L19.3152 2.00891C19.3879 1.88588 19.5385 1.85387 19.6475 1.93826L22.1528 3.87905C22.2567 3.95959 22.2841 4.11668 22.2147 4.23408L19.2874 9.18255C19.1851 9.35547 19.2974 9.58472 19.4845 9.58472L26.3546 9.58472C26.4847 9.58472 26.5901 9.70112 26.5901 9.84471V13.2245C26.5901 13.3681 26.4847 13.4845 26.3546 13.4845H23.6133C21.6904 13.4845 19.9915 12.232 18.3164 10.997C17.6456 10.5024 16.9786 10.0106 16.3025 9.60326C15.5121 9.12701 14.6056 8.85635 13.6418 8.85635C12.6779 8.85635 11.7714 9.12701 10.981 9.60326C10.3049 10.0106 9.63791 10.5024 8.96706 10.997C7.29202 12.232 5.59312 13.4845 3.67015 13.4845H0.928784C0.798762 13.4845 0.693359 13.3681 0.693359 13.2245V9.84471C0.693359 9.70112 0.798763 9.58472 0.928784 9.58472L7.8035 9.58472C7.99054 9.58472 8.10289 9.35547 8.0006 9.18255L5.07329 4.23408C5.00383 4.11668 5.03122 3.95959 5.13518 3.87905L7.6405 1.93826C7.74944 1.85387 7.90002 1.88588 7.97279 2.00891L11.4435 7.87596C11.5715 8.09236 11.876 7.99226 11.876 7.73377V0.96067ZM8.96705 19.0028C7.29201 17.7679 5.59311 16.5153 3.67015 16.5153H0.928784C0.798762 16.5153 0.693359 16.6317 0.693359 16.7753V20.1551C0.693359 20.2987 0.798763 20.4151 0.928784 20.4151H7.8035C7.99054 20.4151 8.10289 20.6444 8.0006 20.8173L5.07329 25.7657C5.00383 25.8832 5.03122 26.0402 5.13518 26.1208L7.6405 28.0616C7.74944 28.146 7.90002 28.1139 7.97279 27.9909L11.4435 22.1239C11.5715 21.9075 11.876 22.0076 11.876 22.2661V29.0392C11.876 29.1827 11.9814 29.2991 12.1114 29.2991H15.172C15.302 29.2991 15.4074 29.1827 15.4074 29.0392V22.2584C15.4074 21.9999 15.7119 21.8998 15.8399 22.1162L19.3152 27.9909C19.3879 28.1139 19.5385 28.146 19.6475 28.0616L22.1528 26.1208C22.2567 26.0402 22.2841 25.8832 22.2147 25.7657L19.2874 20.8173C19.1851 20.6444 19.2974 20.4151 19.4845 20.4151H26.3546C26.4847 20.4151 26.5901 20.2987 26.5901 20.1551V16.7753C26.5901 16.6317 26.4847 16.5153 26.3546 16.5153H23.6134C21.6904 16.5153 19.9915 17.7679 18.3165 19.0028C17.6456 19.4974 16.9786 19.9892 16.3025 20.3966C15.5121 20.8728 14.6056 21.1435 13.6418 21.1435C12.6779 21.1435 11.7714 20.8728 10.981 20.3966C10.3049 19.9892 9.63791 19.4974 8.96705 19.0028ZM13.6417 20.0696C16.1539 20.0696 18.1904 17.7998 18.1904 14.9999C18.1904 12.2 16.1539 9.93019 13.6417 9.93019C11.1296 9.93019 9.09309 12.2 9.09309 14.9999C9.09309 17.7998 11.1296 20.0696 13.6417 20.0696Z" fill="#E8C787"/>
</g>
<defs>
<clipPath id="clip0_16_2799">
<rect width="25.9048" height="28.7718" fill="white" transform="translate(0.689453 0.614258)"/>
</clipPath>
</defs>
</svg>
