<svg width="142" height="40" viewBox="0 0 142 40" fill="none" xmlns="http://www.w3.org/2000/svg">
<path fill-rule="evenodd" clip-rule="evenodd" d="M11.876 5.96067C11.876 5.81708 11.9814 5.70068 12.1114 5.70068H15.172C15.302 5.70068 15.4074 5.81708 15.4074 5.96067V12.7414C15.4074 12.9999 15.7119 13.1 15.8399 12.8836L19.3152 7.00891C19.3879 6.88588 19.5385 6.85387 19.6475 6.93826L22.1528 8.87905C22.2567 8.95959 22.2841 9.11668 22.2147 9.23408L19.2874 14.1825C19.1851 14.3555 19.2974 14.5847 19.4845 14.5847H26.3547C26.4847 14.5847 26.5901 14.7011 26.5901 14.8447V18.2245C26.5901 18.3681 26.4847 18.4845 26.3547 18.4845H23.6133C21.6904 18.4845 19.9915 17.232 18.3164 15.997C17.6456 15.5024 16.9786 15.0106 16.3025 14.6033C15.5121 14.127 14.6056 13.8563 13.6418 13.8563C12.6779 13.8563 11.7714 14.127 10.981 14.6033C10.3049 15.0106 9.63791 15.5024 8.96706 15.997C7.29202 17.232 5.59312 18.4845 3.67015 18.4845H0.928784C0.798762 18.4845 0.693359 18.3681 0.693359 18.2245V14.8447C0.693359 14.7011 0.798763 14.5847 0.928784 14.5847L7.8035 14.5847C7.99054 14.5847 8.10289 14.3555 8.0006 14.1825L5.07329 9.23408C5.00383 9.11668 5.03122 8.95959 5.13518 8.87905L7.6405 6.93826C7.74944 6.85387 7.90002 6.88588 7.97279 7.00891L11.4435 12.876C11.5715 13.0924 11.876 12.9923 11.876 12.7338V5.96067ZM8.96705 24.0028C7.29201 22.7679 5.59311 21.5153 3.67015 21.5153H0.928784C0.798762 21.5153 0.693359 21.6317 0.693359 21.7753V25.1551C0.693359 25.2987 0.798763 25.4151 0.928784 25.4151H7.8035C7.99054 25.4151 8.10289 25.6444 8.0006 25.8173L5.07329 30.7657C5.00383 30.8832 5.03122 31.0402 5.13518 31.1208L7.6405 33.0616C7.74944 33.146 7.90002 33.1139 7.97279 32.9909L11.4435 27.1239C11.5715 26.9075 11.876 27.0076 11.876 27.2661V34.0392C11.876 34.1827 11.9814 34.2991 12.1114 34.2991H15.172C15.302 34.2991 15.4074 34.1827 15.4074 34.0392V27.2584C15.4074 26.9999 15.7119 26.8998 15.8399 27.1162L19.3152 32.9909C19.3879 33.1139 19.5385 33.146 19.6475 33.0616L22.1528 31.1208C22.2567 31.0402 22.2841 30.8832 22.2147 30.7657L19.2874 25.8173C19.1851 25.6444 19.2974 25.4151 19.4845 25.4151H26.3547C26.4847 25.4151 26.5901 25.2987 26.5901 25.1551V21.7753C26.5901 21.6317 26.4847 21.5153 26.3547 21.5153H23.6134C21.6904 21.5153 19.9915 22.7679 18.3165 24.0028C17.6456 24.4974 16.9786 24.9892 16.3025 25.3966C15.5121 25.8728 14.6056 26.1435 13.6418 26.1435C12.6779 26.1435 11.7714 25.8728 10.981 25.3966C10.3049 24.9892 9.63791 24.4974 8.96705 24.0028ZM13.6417 25.0696C16.1539 25.0696 18.1904 22.7998 18.1904 19.9999C18.1904 17.2 16.1539 14.9302 13.6417 14.9302C11.1296 14.9302 9.09309 17.2 9.09309 19.9999C9.09309 22.7998 11.1296 25.0696 13.6417 25.0696Z" fill="#E8C787"/>
<path d="M138.255 30.295C137.135 30.295 136.264 29.9816 135.641 29.3549C135.018 28.7187 134.706 27.7738 134.706 26.5202L134.681 19.2373C134.681 18.6191 134.999 18.0814 135.553 17.9322H133.052V14.7749H134.705L135.376 9.66357H138.141V14.7749H141.273V17.9322H138.141V25.4117C138.141 26.0104 138.23 26.4267 138.406 26.6606C138.592 26.8945 138.933 27.0114 139.429 27.0114C139.825 27.0114 140.174 27.0067 140.477 26.9974C140.78 26.988 141.058 26.9693 141.311 26.9412V30.0846C140.949 30.1968 140.486 30.2576 139.922 30.267C139.358 30.2857 138.802 30.295 138.255 30.295Z" fill="#0A2845"/>
<path d="M126.934 30.3361C125.815 30.3361 124.838 30.1537 124.005 29.7888C123.171 29.424 122.515 28.872 122.035 28.133C121.563 27.3846 121.302 26.4303 121.252 25.2703H124.636C124.729 26.0374 124.977 26.594 125.381 26.9402C125.785 27.277 126.307 27.4454 126.947 27.4454C127.334 27.4454 127.692 27.3986 128.02 27.305C128.349 27.2115 128.61 27.0524 128.803 26.8279C129.005 26.6034 129.106 26.2947 129.106 25.9018C129.106 25.6024 129.043 25.3592 128.917 25.1721C128.791 24.9756 128.601 24.8119 128.349 24.6809C128.105 24.5406 127.802 24.4096 127.44 24.288C127.078 24.1664 126.661 24.0307 126.189 23.8811C125.356 23.6098 124.59 23.287 123.891 22.9128C123.192 22.5292 122.633 22.0241 122.212 21.3973C121.791 20.7705 121.58 19.9519 121.58 18.9415C121.58 17.4915 122.06 16.3923 123.02 15.6439C123.98 14.8861 125.23 14.5072 126.77 14.5072C127.713 14.5072 128.563 14.6522 129.321 14.9422C130.079 15.2322 130.702 15.7327 131.19 16.4437C131.687 17.1547 132.002 18.1417 132.137 19.4046L128.778 19.3906C128.677 18.8106 128.517 18.3756 128.298 18.0855C128.088 17.7862 127.844 17.585 127.566 17.4821C127.296 17.3792 127.01 17.3278 126.707 17.3278C126.37 17.3278 126.067 17.3886 125.798 17.5102C125.537 17.6225 125.335 17.7909 125.192 18.0154C125.049 18.2399 124.977 18.5112 124.977 18.8293C124.977 19.2222 125.078 19.5496 125.28 19.8116C125.491 20.0735 125.806 20.3027 126.227 20.4992C126.657 20.6863 127.191 20.8874 127.831 21.1026C128.302 21.2429 128.808 21.4066 129.346 21.5937C129.885 21.7808 130.395 22.0334 130.874 22.3515C131.354 22.6602 131.746 23.0812 132.049 23.6144C132.36 24.1383 132.516 24.8212 132.516 25.6632C132.516 27.132 132.011 28.278 131.001 29.1012C129.99 29.9245 128.635 30.3361 126.934 30.3361Z" fill="#0A2845"/>
<path fill-rule="evenodd" clip-rule="evenodd" d="M110.754 29.3967C111.73 30.0048 112.901 30.3088 114.264 30.3088C115.367 30.3088 116.331 30.1124 117.156 29.7194C117.99 29.3265 118.651 28.7605 119.139 28.0215C119.636 27.2731 119.922 26.389 119.998 25.3693H116.651C116.55 25.8932 116.302 26.3376 115.906 26.7024C115.51 27.0673 114.934 27.2497 114.176 27.2497C113.317 27.2497 112.619 26.9223 112.08 26.2674C111.549 25.6125 111.242 24.5835 111.158 23.1802H120.225C120.242 22.8715 120.254 22.6049 120.263 22.3803C120.28 22.1558 120.288 21.9173 120.288 21.6647C120.288 20.1117 120.056 18.802 119.593 17.7355C119.13 16.6597 118.453 15.8505 117.56 15.3079C116.676 14.7559 115.595 14.4799 114.315 14.4799C113.002 14.4799 111.848 14.7887 110.855 15.4061C109.87 16.0235 109.1 16.9216 108.544 18.1004C107.997 19.2791 107.723 20.7198 107.723 22.4224C107.723 24.1064 107.984 25.5377 108.506 26.7164C109.028 27.8858 109.777 28.7793 110.754 29.3967ZM116.891 20.8087H112.648C112.194 20.8087 111.844 20.8976 111.6 21.0753C111.356 21.253 111.2 21.5852 111.133 22.0716C111.175 20.659 111.436 19.5644 111.916 18.788C112.404 18.0021 113.157 17.6092 114.176 17.6092C115.102 17.6092 115.776 17.8805 116.197 18.4231C116.626 18.9657 116.857 19.7609 116.891 20.8087Z" fill="#0A2845"/>
<path d="M91.542 30.0974V9.69388H95.8354L101.543 21.9164L103.071 26.1963H103.172L102.667 21.2849V9.69388H106.127V30.0974H101.808L96.1385 17.9171L94.6737 13.9037H94.5474L95.002 19.3484V30.0974H91.542Z" fill="#0A2845"/>
<path fill-rule="evenodd" clip-rule="evenodd" d="M78.8262 29.2845C79.6176 29.9487 80.5773 30.2808 81.7054 30.2808C82.3283 30.2808 82.8545 30.1732 83.2838 29.958C83.7216 29.7335 84.0836 29.4435 84.3698 29.088C84.6561 28.7232 84.8834 28.3209 85.0517 27.8812C85.2201 27.4415 85.3422 27.0065 85.4179 26.5762L85.4284 26.526L85.4306 30.0984H88.8906V9.68984H85.4179L85.4224 16.8217C85.3266 16.5666 85.1989 16.3099 85.0391 16.0517C84.7613 15.6026 84.3656 15.2331 83.8521 14.9431C83.3386 14.6437 82.6861 14.494 81.8948 14.494C80.8846 14.494 79.9669 14.7981 79.1419 15.4061C78.3169 16.0142 77.6603 16.903 77.172 18.0724C76.6837 19.2418 76.4396 20.6731 76.4396 22.3664C76.4396 23.9287 76.6416 25.3039 77.0457 26.492C77.4498 27.6801 78.0433 28.6109 78.8262 29.2845ZM85.4239 19.2853L85.4278 25.5446L85.4179 25.5237C85.3759 25.7202 85.2454 25.9447 85.0265 26.1973C84.816 26.4405 84.5256 26.6557 84.1552 26.8428C83.7932 27.0205 83.3554 27.1094 82.8419 27.1094C81.9411 27.1094 81.2339 26.7118 80.7204 25.9166C80.2069 25.1121 79.9501 23.9521 79.9501 22.4365C79.9501 20.7994 80.2237 19.6019 80.7709 18.8442C81.3181 18.0864 82.0505 17.7075 82.9682 17.7075C83.4648 17.7075 83.8774 17.7777 84.2057 17.918C84.5424 18.0583 84.8076 18.2501 85.0012 18.4933C85.2033 18.7272 85.3422 18.9938 85.4179 19.2932L85.4239 19.2853Z" fill="#0A2845"/>
<path d="M71.2544 30.0978V9.69388H74.7523V30.0978H71.2544Z" fill="#0A2845"/>
<path fill-rule="evenodd" clip-rule="evenodd" d="M60.1888 29.3967C61.1653 30.0048 62.3355 30.3088 63.6993 30.3088C64.8021 30.3088 65.7661 30.1124 66.5911 29.7194C67.4245 29.3265 68.0854 28.7605 68.5737 28.0215C69.0703 27.2731 69.3566 26.389 69.4323 25.3693H66.086C65.9849 25.8932 65.7366 26.3376 65.3409 26.7024C64.9453 27.0673 64.3686 27.2497 63.6109 27.2497C62.7522 27.2497 62.0535 26.9223 61.5147 26.2674C60.9843 25.6125 60.6771 24.5835 60.5929 23.1802H69.6596C69.6765 22.8715 69.6891 22.6049 69.6975 22.3803C69.7144 22.1558 69.7228 21.9173 69.7228 21.6647C69.7228 20.1117 69.4913 18.802 69.0283 17.7355C68.5652 16.6597 67.8875 15.8505 66.9952 15.3079C66.1112 14.7559 65.0294 14.4799 63.7498 14.4799C62.4365 14.4799 61.2832 14.7887 60.2898 15.4061C59.3048 16.0235 58.5345 16.9216 57.9789 18.1004C57.4317 19.2791 57.1581 20.7198 57.1581 22.4224C57.1581 24.1064 57.4191 25.5377 57.941 26.7164C58.463 27.8858 59.2122 28.7793 60.1888 29.3967ZM66.3259 20.8087H62.083C61.6284 20.8087 61.279 20.8976 61.0348 21.0753C60.7907 21.253 60.635 21.5852 60.5676 22.0716C60.6097 20.659 60.8707 19.5644 61.3505 18.788C61.8388 18.0021 62.5923 17.6092 63.6109 17.6092C64.537 17.6092 65.2104 17.8805 65.6314 18.4231C66.0607 18.9657 66.2922 19.7609 66.3259 20.8087Z" fill="#0A2845"/>
<path d="M46.4184 30.0974V23.5723L51.8798 11.4466C51.9812 11.6791 52.1172 11.8901 52.2878 12.0796C52.7087 12.5474 53.2222 12.7813 53.8284 12.7813C54.4261 12.7813 54.9354 12.5474 55.3563 12.0796C55.7857 11.6119 56.0004 11.0131 56.0004 10.2834C56.0004 10.076 55.983 9.87943 55.9483 9.69388H48.6157L46.3553 15.5034L44.7137 19.615H44.5243L42.9079 15.4894L40.6475 9.69388H36.594L42.8448 23.5445V30.0974H46.4184Z" fill="#0A2845"/>
<path d="M52.0731 30.0976V14.7739H55.5584L55.5458 30.0976H52.0731Z" fill="#0A2845"/>
</svg>
