<svg width="142" height="41" viewBox="0 0 142 41" fill="none" xmlns="http://www.w3.org/2000/svg">
<path fill-rule="evenodd" clip-rule="evenodd" d="M11.876 6.46067C11.876 6.31708 11.9814 6.20068 12.1114 6.20068H15.172C15.302 6.20068 15.4074 6.31708 15.4074 6.46067V13.2414C15.4074 13.4999 15.7119 13.6 15.8399 13.3836L19.3152 7.50891C19.3879 7.38588 19.5385 7.35387 19.6475 7.43826L22.1528 9.37905C22.2567 9.45959 22.2841 9.61668 22.2147 9.73408L19.2874 14.6825C19.1851 14.8555 19.2974 15.0847 19.4845 15.0847H26.3547C26.4847 15.0847 26.5901 15.2011 26.5901 15.3447V18.7245C26.5901 18.8681 26.4847 18.9845 26.3547 18.9845H23.6133C21.6904 18.9845 19.9915 17.732 18.3164 16.497C17.6456 16.0024 16.9786 15.5106 16.3025 15.1033C15.5121 14.627 14.6056 14.3563 13.6418 14.3563C12.6779 14.3563 11.7714 14.627 10.981 15.1033C10.3049 15.5106 9.63791 16.0024 8.96706 16.497C7.29202 17.732 5.59312 18.9845 3.67015 18.9845H0.928784C0.798762 18.9845 0.693359 18.8681 0.693359 18.7245V15.3447C0.693359 15.2011 0.798763 15.0847 0.928784 15.0847L7.8035 15.0847C7.99054 15.0847 8.10289 14.8555 8.0006 14.6825L5.07329 9.73408C5.00383 9.61668 5.03122 9.45959 5.13518 9.37905L7.6405 7.43826C7.74944 7.35387 7.90002 7.38588 7.97279 7.50891L11.4435 13.376C11.5715 13.5924 11.876 13.4923 11.876 13.2338V6.46067ZM8.96705 24.5028C7.29201 23.2679 5.59311 22.0153 3.67015 22.0153H0.928784C0.798762 22.0153 0.693359 22.1317 0.693359 22.2753V25.6551C0.693359 25.7987 0.798763 25.9151 0.928784 25.9151H7.8035C7.99054 25.9151 8.10289 26.1444 8.0006 26.3173L5.07329 31.2657C5.00383 31.3832 5.03122 31.5402 5.13518 31.6208L7.6405 33.5616C7.74944 33.646 7.90002 33.6139 7.97279 33.4909L11.4435 27.6239C11.5715 27.4075 11.876 27.5076 11.876 27.7661V34.5392C11.876 34.6827 11.9814 34.7991 12.1114 34.7991H15.172C15.302 34.7991 15.4074 34.6827 15.4074 34.5392V27.7584C15.4074 27.4999 15.7119 27.3998 15.8399 27.6162L19.3152 33.4909C19.3879 33.6139 19.5385 33.646 19.6475 33.5616L22.1528 31.6208C22.2567 31.5402 22.2841 31.3832 22.2147 31.2657L19.2874 26.3173C19.1851 26.1444 19.2974 25.9151 19.4845 25.9151H26.3547C26.4847 25.9151 26.5901 25.7987 26.5901 25.6551V22.2753C26.5901 22.1317 26.4847 22.0153 26.3547 22.0153H23.6134C21.6904 22.0153 19.9915 23.2679 18.3165 24.5028C17.6456 24.9974 16.9786 25.4892 16.3025 25.8966C15.5121 26.3728 14.6056 26.6435 13.6418 26.6435C12.6779 26.6435 11.7714 26.3728 10.981 25.8966C10.3049 25.4892 9.63791 24.9974 8.96705 24.5028ZM13.6417 25.5696C16.1539 25.5696 18.1904 23.2998 18.1904 20.4999C18.1904 17.7 16.1539 15.4302 13.6417 15.4302C11.1296 15.4302 9.09309 17.7 9.09309 20.4999C9.09309 23.2998 11.1296 25.5696 13.6417 25.5696Z" fill="#E8C787"/>
<path d="M138.255 30.795C137.135 30.795 136.264 30.4816 135.641 29.8549C135.018 29.2187 134.706 28.2738 134.706 27.0202L134.681 19.7373C134.681 19.1191 134.999 18.5814 135.553 18.4322H133.052V15.2749H134.705L135.376 10.1636H138.141V15.2749H141.273V18.4322H138.141V25.9117C138.141 26.5104 138.23 26.9267 138.406 27.1606C138.592 27.3945 138.933 27.5114 139.429 27.5114C139.825 27.5114 140.174 27.5067 140.477 27.4974C140.78 27.488 141.058 27.4693 141.311 27.4412V30.5846C140.949 30.6968 140.486 30.7576 139.922 30.767C139.358 30.7857 138.802 30.795 138.255 30.795Z" fill="white"/>
<path d="M126.934 30.8361C125.815 30.8361 124.838 30.6537 124.005 30.2888C123.171 29.924 122.515 29.372 122.035 28.633C121.563 27.8846 121.302 26.9303 121.252 25.7703H124.636C124.729 26.5374 124.977 27.094 125.381 27.4402C125.785 27.777 126.307 27.9454 126.947 27.9454C127.334 27.9454 127.692 27.8986 128.02 27.805C128.349 27.7115 128.61 27.5524 128.803 27.3279C129.005 27.1034 129.106 26.7947 129.106 26.4018C129.106 26.1024 129.043 25.8592 128.917 25.6721C128.791 25.4756 128.601 25.3119 128.349 25.1809C128.105 25.0406 127.802 24.9096 127.44 24.788C127.078 24.6664 126.661 24.5307 126.189 24.3811C125.356 24.1098 124.59 23.787 123.891 23.4128C123.192 23.0292 122.633 22.5241 122.212 21.8973C121.791 21.2705 121.58 20.4519 121.58 19.4415C121.58 17.9915 122.06 16.8923 123.02 16.1439C123.98 15.3861 125.23 15.0072 126.77 15.0072C127.713 15.0072 128.563 15.1522 129.321 15.4422C130.079 15.7322 130.702 16.2327 131.19 16.9437C131.687 17.6547 132.002 18.6417 132.137 19.9046L128.778 19.8906C128.677 19.3106 128.517 18.8756 128.298 18.5855C128.088 18.2862 127.844 18.085 127.566 17.9821C127.296 17.8792 127.01 17.8278 126.707 17.8278C126.37 17.8278 126.067 17.8886 125.798 18.0102C125.537 18.1225 125.335 18.2909 125.192 18.5154C125.049 18.7399 124.977 19.0112 124.977 19.3293C124.977 19.7222 125.078 20.0496 125.28 20.3116C125.491 20.5735 125.806 20.8027 126.227 20.9992C126.657 21.1863 127.191 21.3874 127.831 21.6026C128.302 21.7429 128.808 21.9066 129.346 22.0937C129.885 22.2808 130.395 22.5334 130.874 22.8515C131.354 23.1602 131.746 23.5812 132.049 24.1144C132.36 24.6383 132.516 25.3212 132.516 26.1632C132.516 27.632 132.011 28.778 131.001 29.6012C129.99 30.4245 128.635 30.8361 126.934 30.8361Z" fill="white"/>
<path fill-rule="evenodd" clip-rule="evenodd" d="M110.754 29.8967C111.73 30.5048 112.901 30.8088 114.264 30.8088C115.367 30.8088 116.331 30.6124 117.156 30.2194C117.99 29.8265 118.651 29.2605 119.139 28.5215C119.636 27.7731 119.922 26.889 119.998 25.8693H116.651C116.55 26.3932 116.302 26.8376 115.906 27.2024C115.51 27.5673 114.934 27.7497 114.176 27.7497C113.317 27.7497 112.619 27.4223 112.08 26.7674C111.549 26.1125 111.242 25.0835 111.158 23.6802H120.225C120.242 23.3715 120.254 23.1049 120.263 22.8803C120.28 22.6558 120.288 22.4173 120.288 22.1647C120.288 20.6117 120.056 19.302 119.593 18.2355C119.13 17.1597 118.453 16.3505 117.56 15.8079C116.676 15.2559 115.595 14.9799 114.315 14.9799C113.002 14.9799 111.848 15.2887 110.855 15.9061C109.87 16.5235 109.1 17.4216 108.544 18.6004C107.997 19.7791 107.723 21.2198 107.723 22.9224C107.723 24.6064 107.984 26.0377 108.506 27.2164C109.028 28.3858 109.777 29.2793 110.754 29.8967ZM116.891 21.3087H112.648C112.194 21.3087 111.844 21.3976 111.6 21.5753C111.356 21.753 111.2 22.0852 111.133 22.5716C111.175 21.159 111.436 20.0644 111.916 19.288C112.404 18.5021 113.157 18.1092 114.176 18.1092C115.102 18.1092 115.776 18.3805 116.197 18.9231C116.626 19.4657 116.857 20.2609 116.891 21.3087Z" fill="white"/>
<path d="M91.542 30.5974V10.1939H95.8354L101.543 22.4164L103.071 26.6963H103.172L102.667 21.7849V10.1939H106.127V30.5974H101.808L96.1385 18.4171L94.6737 14.4037H94.5474L95.002 19.8484V30.5974H91.542Z" fill="white"/>
<path fill-rule="evenodd" clip-rule="evenodd" d="M78.8262 29.7845C79.6176 30.4487 80.5773 30.7808 81.7054 30.7808C82.3283 30.7808 82.8545 30.6732 83.2838 30.458C83.7216 30.2335 84.0836 29.9435 84.3698 29.588C84.6561 29.2232 84.8834 28.8209 85.0517 28.3812C85.2201 27.9415 85.3422 27.5065 85.4179 27.0762L85.4284 27.026L85.4306 30.5984H88.8906V10.1898H85.4179L85.4224 17.3217C85.3266 17.0666 85.1989 16.8099 85.0391 16.5517C84.7613 16.1026 84.3656 15.7331 83.8521 15.4431C83.3386 15.1437 82.6861 14.994 81.8948 14.994C80.8846 14.994 79.9669 15.2981 79.1419 15.9061C78.3169 16.5142 77.6603 17.403 77.172 18.5724C76.6837 19.7418 76.4396 21.1731 76.4396 22.8664C76.4396 24.4287 76.6416 25.8039 77.0457 26.992C77.4498 28.1801 78.0433 29.1109 78.8262 29.7845ZM85.4239 19.7853L85.4278 26.0446L85.4179 26.0237C85.3759 26.2202 85.2454 26.4447 85.0265 26.6973C84.816 26.9405 84.5256 27.1557 84.1552 27.3428C83.7932 27.5205 83.3554 27.6094 82.8419 27.6094C81.9411 27.6094 81.2339 27.2118 80.7204 26.4166C80.2069 25.6121 79.9501 24.4521 79.9501 22.9365C79.9501 21.2994 80.2237 20.1019 80.7709 19.3442C81.3181 18.5864 82.0505 18.2075 82.9682 18.2075C83.4648 18.2075 83.8774 18.2777 84.2057 18.418C84.5424 18.5583 84.8076 18.7501 85.0012 18.9933C85.2033 19.2272 85.3422 19.4938 85.4179 19.7932L85.4239 19.7853Z" fill="white"/>
<path d="M71.2544 30.5978V10.1939H74.7523V30.5978H71.2544Z" fill="white"/>
<path fill-rule="evenodd" clip-rule="evenodd" d="M60.1888 29.8967C61.1653 30.5048 62.3355 30.8088 63.6993 30.8088C64.8021 30.8088 65.7661 30.6124 66.5911 30.2194C67.4245 29.8265 68.0854 29.2605 68.5737 28.5215C69.0703 27.7731 69.3566 26.889 69.4323 25.8693H66.086C65.9849 26.3932 65.7366 26.8376 65.3409 27.2024C64.9453 27.5673 64.3686 27.7497 63.6109 27.7497C62.7522 27.7497 62.0535 27.4223 61.5147 26.7674C60.9843 26.1125 60.6771 25.0835 60.5929 23.6802H69.6596C69.6765 23.3715 69.6891 23.1049 69.6975 22.8803C69.7144 22.6558 69.7228 22.4173 69.7228 22.1647C69.7228 20.6117 69.4913 19.302 69.0283 18.2355C68.5652 17.1597 67.8875 16.3505 66.9952 15.8079C66.1112 15.2559 65.0294 14.9799 63.7498 14.9799C62.4365 14.9799 61.2832 15.2887 60.2898 15.9061C59.3048 16.5235 58.5345 17.4216 57.9789 18.6004C57.4317 19.7791 57.1581 21.2198 57.1581 22.9224C57.1581 24.6064 57.4191 26.0377 57.941 27.2164C58.463 28.3858 59.2122 29.2793 60.1888 29.8967ZM66.3259 21.3087H62.083C61.6284 21.3087 61.279 21.3976 61.0348 21.5753C60.7907 21.753 60.635 22.0852 60.5676 22.5716C60.6097 21.159 60.8707 20.0644 61.3505 19.288C61.8388 18.5021 62.5923 18.1092 63.6109 18.1092C64.537 18.1092 65.2104 18.3805 65.6314 18.9231C66.0607 19.4657 66.2922 20.2609 66.3259 21.3087Z" fill="white"/>
<path d="M46.4184 30.5974V24.0723L51.8798 11.9466C51.9812 12.1791 52.1172 12.3901 52.2878 12.5796C52.7087 13.0474 53.2222 13.2813 53.8284 13.2813C54.4261 13.2813 54.9354 13.0474 55.3563 12.5796C55.7857 12.1119 56.0004 11.5131 56.0004 10.7834C56.0004 10.576 55.983 10.3794 55.9483 10.1939H48.6157L46.3553 16.0034L44.7137 20.115H44.5243L42.9079 15.9894L40.6475 10.1939H36.594L42.8448 24.0445V30.5974H46.4184Z" fill="white"/>
<path d="M52.0731 30.5976V15.2739H55.5584L55.5458 30.5976H52.0731Z" fill="white"/>
</svg>
