<svg width="211" height="54" viewBox="0 0 211 54" fill="none" xmlns="http://www.w3.org/2000/svg">
<g clip-path="url(#clip0_634_7482)">
<path d="M32.7049 0.369141V6.22656H41.0275L0 45.7252V51.5826H47.3186C48.3547 51.5826 49.3487 51.171 50.0814 50.4389C50.8142 49.7065 51.226 48.7132 51.226 47.6776V25.9269H45.3649V45.7252H8.47905L45.3843 10.1705V18.9176H51.2454V4.46621C51.2454 2.20346 49.4112 0.369141 47.1483 0.369141H32.7049Z" fill="#0A2845"/>
<path d="M5.88159 6.22559H25.6921V0.368164H3.9279C2.89159 0.368164 1.89773 0.779574 1.16495 1.51189C0.432174 2.24421 0.0205078 3.23746 0.0205078 4.27311V27.7027H5.88159V6.22559Z" fill="#0A2845"/>
<mask id="mask0_634_7482" style="mask-type:luminance" maskUnits="userSpaceOnUse" x="70" y="2" width="141" height="50">
<path d="M210.536 2.17969H70.5684V51.9757H210.536V2.17969Z" fill="white"/>
</mask>
<g mask="url(#mask0_634_7482)">
<path d="M77.0447 14.072V11.7451H100.045V17.8124L85.1157 33.9144H100.472V40.0631H76.207V34.4495L91.2283 17.7077H80.6556C80.1779 17.7205 79.7027 17.6352 79.2589 17.4571C78.815 17.2789 78.4119 17.0116 78.0741 16.6714C77.7361 16.3312 77.4706 15.9252 77.2936 15.4783C77.1168 15.0314 77.032 14.5529 77.0447 14.072Z" fill="#0A2845"/>
<path d="M128.071 26.0023C128.071 35.7693 123.755 40.7081 115.228 40.7081C106.7 40.7081 102.437 35.7693 102.437 26.0023C102.437 16.1131 106.7 11.2441 115.228 11.2441C123.755 11.2441 128.071 16.1306 128.071 26.0023ZM109.629 26.0023C109.687 31.5286 111.548 34.3207 115.176 34.3207C118.804 34.3207 120.612 31.4122 120.664 25.787C120.664 20.2607 118.85 17.5267 115.228 17.5267C111.496 17.5267 109.629 20.3654 109.629 26.0023Z" fill="#0A2845"/>
<path d="M137.776 5.92744V22.2155L146.812 11.7795H155.686L145.599 22.6576L155.796 40.109H146.945L141.745 30.4526C140.804 28.7888 140.289 27.9571 139.094 27.9571C138.741 27.9706 138.406 28.121 138.161 28.3769C137.915 28.6327 137.778 28.9742 137.776 29.3298V40.0394H130.468V2.3208H134.269C135.204 2.34644 136.093 2.73699 136.747 3.40997C137.402 4.08294 137.771 4.98564 137.776 5.92744Z" fill="#0A2845"/>
<path d="M162.198 45.0946C166.074 45.0946 167.455 43.1691 166.34 39.423L156.778 11.7681H164.798L170.373 31.4009L175.26 14.2869C175.688 12.629 176.803 11.7681 178.611 11.7681H183.551L172.441 44.8795C170.742 49.5331 169.044 51.1328 163.197 51.1328C161.394 51.1328 160.436 51.0806 160.222 50.9235V45.1062L162.198 45.0946Z" fill="#0A2845"/>
<path d="M211.001 26.0023C211.001 35.7693 206.678 40.7081 198.152 40.7081C189.624 40.7081 185.366 35.7693 185.366 26.0023C185.366 16.1131 189.63 11.2441 198.152 11.2441C206.674 11.2441 211.001 16.1306 211.001 26.0023ZM192.559 26.0023C192.611 31.5286 194.477 34.3207 198.099 34.3207C201.722 34.3207 203.536 31.4122 203.588 25.787C203.588 20.2607 201.78 17.5267 198.152 17.5267C194.425 17.5267 192.559 20.3654 192.559 26.0023Z" fill="#0A2845"/>
<path d="M78.8099 46.4801C78.5526 46.3054 78.2458 46.2179 77.935 46.231C77.7922 46.2304 77.6498 46.2448 77.5101 46.2739C77.3784 46.3003 77.2524 46.3492 77.1375 46.4187C77.0304 46.4851 76.9415 46.5772 76.879 46.6866C76.8095 46.8157 76.7757 46.9609 76.7811 47.1074C76.778 47.1779 76.7888 47.2481 76.813 47.3143C76.8372 47.3807 76.8741 47.4415 76.9218 47.4934C77.0275 47.6005 77.1557 47.6828 77.2971 47.7347C77.4706 47.8029 77.6501 47.8549 77.833 47.89C78.0301 47.9303 78.2351 47.9746 78.4348 48.0241C78.6344 48.0737 78.8368 48.1286 79.0377 48.1929C79.2291 48.2548 79.4097 48.3451 79.5738 48.4609C79.7285 48.5707 79.8567 48.7135 79.9491 48.879C80.0491 49.0898 80.0974 49.3213 80.0896 49.5544C80.0821 49.7875 80.0186 50.0155 79.9049 50.2191C79.7852 50.4111 79.624 50.5737 79.4331 50.6948C79.2354 50.8208 79.0172 50.9115 78.7886 50.963C78.2847 51.0814 77.7594 51.0732 77.2594 50.9388C77.0148 50.8724 76.7848 50.7606 76.5813 50.6092C76.3851 50.4615 76.2271 50.2689 76.1204 50.0477C76.0032 49.7961 75.9455 49.521 75.9516 49.2436H76.6002C76.5944 49.4253 76.6332 49.606 76.713 49.7695C76.7929 49.933 76.9116 50.0743 77.0584 50.1816C77.2024 50.2853 77.3649 50.3609 77.537 50.4041C77.7205 50.4525 77.9098 50.4768 78.0997 50.4764C78.2558 50.4766 78.4115 50.4623 78.5647 50.4336C78.7122 50.4066 78.8546 50.357 78.9869 50.2861C79.1096 50.2177 79.2133 50.1196 79.2885 50.0008C79.3712 49.8617 79.4116 49.7015 79.405 49.5396C79.4143 49.3839 79.3665 49.2301 79.2711 49.1068C79.168 48.9902 79.0396 48.8984 78.8958 48.8388C78.7255 48.7647 78.5481 48.7081 78.3664 48.67L77.7633 48.5361C77.5597 48.4904 77.3614 48.4381 77.1617 48.3779C76.9732 48.323 76.7929 48.2433 76.6256 48.1407C76.4721 48.0446 76.3437 47.9137 76.2505 47.7586C76.1507 47.579 76.1022 47.3756 76.1098 47.1705C76.1048 46.9372 76.1591 46.7067 76.2679 46.5004C76.3707 46.3138 76.5152 46.1532 76.6899 46.0313C76.8726 45.9082 77.0754 45.8175 77.2889 45.7634C77.5132 45.7031 77.7443 45.6728 77.9764 45.6734C78.2247 45.6714 78.4721 45.7023 78.7122 45.766C78.9285 45.8234 79.1309 45.9242 79.3071 46.062C79.4782 46.1985 79.6158 46.3722 79.7092 46.5701C79.8139 46.7999 79.869 47.0492 79.8713 47.3018H79.2121C79.1758 46.913 79.0433 46.6451 78.8099 46.4801Z" fill="#0A2845"/>
<path d="M84.4622 45.7749V46.3524H81.593V47.9888H84.2733V48.565H81.593V50.3446H84.4837V50.9223H80.9082V45.7749H84.4622Z" fill="#0A2845"/>
<path d="M88.426 46.5031C88.1489 46.3181 87.8209 46.2245 87.4878 46.2352C87.2145 46.2274 86.9435 46.2868 86.6985 46.4081C86.4867 46.5201 86.3033 46.6791 86.1624 46.8731C86.0174 47.0751 85.911 47.3022 85.849 47.5432C85.7814 47.7968 85.7476 48.058 85.7484 48.3204C85.7467 48.6014 85.7805 48.8815 85.849 49.1539C85.9094 49.3999 86.0157 49.6322 86.1624 49.8387C86.3054 50.0338 86.4918 50.1929 86.7065 50.3038C86.9531 50.4246 87.2254 50.484 87.4999 50.4767C87.706 50.4803 87.9106 50.4424 88.1015 50.3654C88.2726 50.2937 88.4273 50.188 88.5559 50.0545C88.6864 49.9188 88.7884 49.7584 88.856 49.5827C88.9312 49.394 88.9763 49.1945 88.9902 48.9919H89.6656C89.5972 49.6404 89.3747 50.1456 88.9955 50.5062C88.6161 50.8667 88.0962 51.0421 87.4382 51.0421C87.0791 51.05 86.7225 50.98 86.3931 50.8372C86.105 50.7079 85.851 50.5139 85.6505 50.2702C85.4479 50.0192 85.2971 49.7304 85.207 49.4206C85.1068 49.0785 85.0572 48.7237 85.0597 48.3673C85.057 48.0092 85.1103 47.653 85.2176 47.3113C85.3159 46.9968 85.4739 46.7043 85.6826 46.4496C85.8918 46.2012 86.1538 46.0024 86.4492 45.8681C86.7792 45.7214 87.1375 45.6491 87.4986 45.6562C87.7576 45.6544 88.0153 45.6905 88.2638 45.7634C88.4942 45.8312 88.711 45.9387 88.9043 46.0811C89.0938 46.2223 89.2534 46.4001 89.3735 46.6037C89.5027 46.8266 89.5863 47.073 89.6187 47.3287H88.9338C88.8789 46.9976 88.6966 46.7014 88.426 46.5031Z" fill="#0A2845"/>
<path d="M94.1018 50.5429C93.7507 50.8739 93.2508 51.0374 92.6023 51.0374C91.9535 51.0374 91.4203 50.8807 91.0476 50.5658C90.675 50.2507 90.4902 49.7497 90.4902 49.0622V45.7749H91.1751V49.0622C91.1751 49.5231 91.2974 49.8728 91.5422 50.1114C91.787 50.3499 92.1403 50.4687 92.6023 50.4679C93.039 50.4679 93.3727 50.3487 93.6005 50.1114C93.8283 49.8742 93.9422 49.5231 93.9422 49.0622V45.7749H94.6231V49.0622C94.6231 49.7214 94.4515 50.2147 94.1018 50.5429Z" fill="#0A2845"/>
<path d="M98.1462 45.7749C98.6358 45.7749 99.0191 45.8949 99.296 46.1352C99.4343 46.2586 99.5433 46.4114 99.615 46.5822C99.6865 46.7531 99.7191 46.9379 99.71 47.123C99.7164 47.4113 99.6427 47.6956 99.497 47.9445C99.3427 48.1893 99.0981 48.3632 98.8163 48.4282V48.4429C98.9463 48.4636 99.0703 48.5126 99.1795 48.5863C99.2706 48.6496 99.347 48.732 99.4032 48.8276C99.4599 48.9253 99.5015 49.0311 99.5265 49.1413C99.5539 49.2601 99.574 49.3803 99.5867 49.5016C99.5976 49.6264 99.6041 49.755 99.6097 49.8837C99.6134 50.0115 99.6254 50.1391 99.6457 50.2655C99.664 50.3868 99.6912 50.5064 99.7275 50.6234C99.7619 50.7328 99.8174 50.8342 99.8909 50.9223H99.1258C99.0736 50.861 99.04 50.7862 99.0293 50.7063C99.0109 50.6051 99 50.5025 98.9972 50.3995C98.9972 50.287 98.9865 50.1651 98.9824 50.0365C98.9773 49.9076 98.9625 49.7796 98.9382 49.6532C98.9193 49.5284 98.8953 49.4092 98.8671 49.2965C98.8423 49.1906 98.7966 49.0905 98.7331 49.0018C98.6694 48.9151 98.5852 48.8457 98.4879 48.7994C98.3615 48.7434 98.224 48.7172 98.0858 48.7232H96.4133V50.9223H95.7285V45.7749H98.1462ZM98.2896 48.1106C98.4238 48.0922 98.5528 48.0467 98.6688 47.9767C98.7773 47.906 98.8663 47.8093 98.9275 47.6952C99.0082 47.5194 99.0398 47.3252 99.0191 47.1329C98.9982 46.9405 98.9259 46.7576 98.8095 46.6029C98.6649 46.4405 98.4316 46.3591 98.1099 46.3591H96.408V48.1455H97.8393C97.9901 48.1463 98.1407 48.1346 98.2896 48.1106Z" fill="#0A2845"/>
<path d="M104.216 45.7749V46.3524H101.347V47.9888H104.027V48.565H101.347V50.3446H104.238V50.9223H100.662V45.7749H104.216Z" fill="#0A2845"/>
<path d="M105.903 50.1232V50.8509C105.91 51.0994 105.845 51.3448 105.716 51.5572C105.573 51.767 105.357 51.9161 105.11 51.9753V51.6148C105.187 51.5892 105.258 51.5466 105.316 51.4902C105.37 51.4368 105.415 51.3757 105.45 51.3091C105.483 51.2469 105.506 51.1801 105.519 51.1108C105.531 51.0492 105.534 50.9861 105.529 50.9232H105.104V50.1191L105.903 50.1232Z" fill="#0A2845"/>
<path d="M110.942 45.7749H111.299C111.433 45.7749 111.553 45.7841 111.678 45.7962C111.795 45.8071 111.912 45.8249 112.028 45.8499C112.126 45.8697 112.219 45.9066 112.305 45.9585C112.478 46.0637 112.624 46.2065 112.734 46.3766C112.857 46.5724 112.918 46.8006 112.911 47.0319C112.918 47.2832 112.85 47.5311 112.715 47.7435C112.577 47.9461 112.38 48.1008 112.15 48.1856V48.2004C112.437 48.2499 112.696 48.4042 112.877 48.6332C113.048 48.8657 113.137 49.1488 113.129 49.4373C113.129 49.6247 113.095 49.8103 113.029 49.9855C112.962 50.1614 112.861 50.322 112.73 50.4572C112.59 50.5992 112.423 50.7121 112.239 50.7895C112.027 50.8768 111.799 50.9198 111.569 50.9155H109.082V45.7749H110.942ZM111.13 47.9888C111.52 47.9888 111.8 47.9189 111.97 47.7823C112.058 47.7067 112.127 47.6114 112.171 47.5045C112.215 47.3973 112.234 47.2814 112.226 47.1659C112.233 47.0171 112.203 46.8688 112.139 46.7344C112.084 46.6318 112.002 46.5468 111.902 46.489C111.793 46.4292 111.675 46.3909 111.552 46.3766C111.412 46.36 111.271 46.352 111.13 46.3524H109.767V47.9888H111.13ZM111.475 50.3446C111.735 50.3603 111.991 50.2727 112.186 50.1008C112.273 50.0119 112.341 49.9056 112.385 49.7888C112.43 49.672 112.449 49.5473 112.442 49.4225C112.447 49.2775 112.415 49.1335 112.348 49.0044C112.29 48.895 112.205 48.8026 112.1 48.7365C111.991 48.6697 111.87 48.6244 111.743 48.6025C111.605 48.5755 111.465 48.5619 111.324 48.5623H109.767V50.3419L111.475 50.3446Z" fill="#0A2845"/>
<path d="M117.596 50.5429C117.246 50.8739 116.746 51.0374 116.096 51.0374C115.446 51.0374 114.915 50.8807 114.543 50.5658C114.17 50.2507 113.985 49.7497 113.985 49.0622V45.7749H114.669V49.0622C114.669 49.5231 114.792 49.8728 115.037 50.1114C115.281 50.3487 115.635 50.4679 116.096 50.4679C116.534 50.4679 116.867 50.3491 117.094 50.1114C117.322 49.8738 117.437 49.5239 117.438 49.0622V45.7749H118.122V49.0622C118.122 49.7214 117.947 50.2151 117.596 50.5429Z" fill="#0A2845"/>
<path d="M119.932 45.7749V50.9223H119.246V45.7749H119.932Z" fill="#0A2845"/>
<path d="M121.77 45.7749V50.3446H124.496V50.9223H121.085V45.7749H121.77Z" fill="#0A2845"/>
<path d="M126.861 45.7749C127.653 45.7749 128.263 45.9767 128.691 46.3807C129.119 46.7844 129.333 47.3994 129.332 48.226C129.338 48.614 129.289 49.0011 129.187 49.3756C129.103 49.687 128.95 49.9754 128.739 50.22C128.529 50.4542 128.265 50.6332 127.969 50.7414C127.613 50.8692 127.237 50.9305 126.859 50.9223H125.092V45.7749H126.861ZM126.917 50.3446C127.013 50.3438 127.109 50.338 127.205 50.3272C127.331 50.3138 127.455 50.285 127.574 50.2413C127.71 50.192 127.84 50.1254 127.96 50.043C128.095 49.9482 128.211 49.8281 128.301 49.6892C128.412 49.5168 128.496 49.3283 128.551 49.1304C128.621 48.8659 128.653 48.5931 128.648 48.3196C128.652 48.0418 128.621 47.7646 128.557 47.4942C128.505 47.2685 128.404 47.0567 128.263 46.8737C128.12 46.7004 127.935 46.5667 127.726 46.4851C127.47 46.3886 127.196 46.3432 126.922 46.3512H125.768V50.3433L126.917 50.3446Z" fill="#0A2845"/>
<path d="M131.005 50.1232V50.8509C131.012 51.0994 130.947 51.3446 130.819 51.5572C130.675 51.767 130.459 51.9161 130.211 51.9753V51.6148C130.289 51.5898 130.36 51.5472 130.418 51.4902C130.472 51.4372 130.517 51.3761 130.552 51.3091C130.585 51.2473 130.609 51.1803 130.621 51.1108C130.632 51.049 130.636 50.9861 130.632 50.9232H130.206V50.1191L131.005 50.1232Z" fill="#0A2845"/>
<path d="M134.891 45.7749V50.9223H134.205V45.7749H134.891Z" fill="#0A2845"/>
<path d="M136.766 45.7749L139.477 49.9492H139.491V45.7749H140.139V50.9223H139.39L136.703 46.792H136.69V50.9223H136.033V45.7749H136.766Z" fill="#0A2845"/>
<path d="M142.498 50.9223L140.688 45.7749H141.424L142.898 50.2374H142.913L144.398 45.7749H145.112L143.271 50.9223H142.498Z" fill="#0A2845"/>
<path d="M149.209 45.7749V46.3524H146.339V47.9888H149.013V48.565H146.339V50.3446H149.23V50.9223H145.653V45.7749H149.209Z" fill="#0A2845"/>
<path d="M152.637 46.479C152.379 46.3041 152.072 46.2166 151.762 46.2297C151.618 46.2291 151.476 46.2435 151.335 46.2726C151.204 46.299 151.079 46.3479 150.964 46.4174C150.857 46.4838 150.768 46.5759 150.706 46.6853C150.636 46.8144 150.602 46.9596 150.608 47.1061C150.6 47.2475 150.648 47.3861 150.742 47.4921C150.848 47.5992 150.976 47.6815 151.117 47.7334C151.29 47.8016 151.47 47.8536 151.653 47.8888C151.85 47.929 152.055 47.9733 152.255 48.0228C152.454 48.0724 152.657 48.1273 152.856 48.1916C153.047 48.2535 153.228 48.344 153.392 48.4596C153.547 48.5694 153.675 48.7124 153.768 48.8779C153.868 49.0885 153.916 49.32 153.908 49.5531C153.901 49.786 153.838 50.014 153.725 50.2178C153.605 50.41 153.443 50.5724 153.252 50.6937C153.054 50.8193 152.836 50.91 152.607 50.9617C152.103 51.0801 151.578 51.0719 151.078 50.9375C150.836 50.8705 150.609 50.7586 150.408 50.6079C150.211 50.4606 150.052 50.268 149.946 50.0464C149.829 49.7948 149.771 49.5197 149.777 49.2423H150.425C150.42 49.4361 150.463 49.6283 150.551 49.8012C150.632 49.9532 150.745 50.0851 150.884 50.1871C151.028 50.2908 151.19 50.3663 151.362 50.4096C151.546 50.4579 151.735 50.4823 151.925 50.4819C152.079 50.4768 152.233 50.4575 152.383 50.4243C152.53 50.3975 152.673 50.3479 152.804 50.2768C152.938 50.2059 153.049 50.0978 153.124 49.9652C153.198 49.8329 153.233 49.6819 153.224 49.5303C153.232 49.3747 153.185 49.2212 153.09 49.0975C152.986 48.9811 152.858 48.8896 152.714 48.8295C152.542 48.7548 152.362 48.6982 152.178 48.6607L151.578 48.5268C151.373 48.4811 151.176 48.4288 150.975 48.3686C150.787 48.3137 150.606 48.234 150.439 48.1314C150.285 48.0353 150.157 47.9044 150.064 47.7493C149.966 47.5691 149.92 47.3657 149.93 47.161C149.925 46.9279 149.979 46.6974 150.088 46.4911C150.191 46.3045 150.335 46.1439 150.51 46.022C150.692 45.8991 150.894 45.8084 151.108 45.7541C151.333 45.6938 151.565 45.6635 151.798 45.6641C152.046 45.6623 152.293 45.6934 152.532 45.7567C152.748 45.8147 152.951 45.9153 153.127 46.0527C153.298 46.1892 153.436 46.3629 153.529 46.5608C153.634 46.7906 153.689 47.0399 153.691 47.2925H153.043C152.999 46.9119 152.866 46.6438 152.637 46.479Z" fill="#0A2845"/>
<path d="M154.184 46.3524V45.7749H158.299V46.3524H156.584V50.9223H155.899V46.3524H154.184Z" fill="#0A2845"/>
<path d="M158.905 50.1235V50.9276H158.101V50.1235H158.905Z" fill="#0A2845"/>
</g>
</g>
<defs>
<clipPath id="clip0_634_7482">
<rect width="210.999" height="53.2619" fill="white" transform="translate(0 0.369141)"/>
</clipPath>
</defs>
</svg>
