<svg width="25" height="24" viewBox="0 0 25 24" fill="none" xmlns="http://www.w3.org/2000/svg">
<g clip-path="url(#clip0_662_3444)">
<path d="M8.66699 6C10.2583 6 11.7844 6.63214 12.9096 7.75736C14.0349 8.88258 14.667 10.4087 14.667 12C14.667 13.5913 14.0349 15.1174 12.9096 16.2426C11.7844 17.3679 10.2583 18 8.66699 18C7.07569 18 5.54957 17.3679 4.42435 16.2426C3.29913 15.1174 2.66699 13.5913 2.66699 12C2.66699 10.4087 3.29913 8.88258 4.42435 7.75736C5.54957 6.63214 7.07569 6 8.66699 6ZM17.667 7C19.167 7 20.167 9.239 20.167 12C20.167 14.761 19.167 17 17.667 17C16.167 17 15.167 14.761 15.167 12C15.167 9.239 16.167 7 17.667 7ZM21.667 7.5C22.047 7.5 22.379 8.327 22.547 9.746L22.594 10.189L22.613 10.424L22.643 10.918L22.653 11.177L22.665 11.718L22.667 12L22.665 12.282L22.653 12.823L22.643 13.083L22.613 13.576L22.593 13.811L22.548 14.254C22.379 15.674 22.048 16.5 21.667 16.5C21.287 16.5 20.955 15.673 20.787 14.254L20.74 13.811C20.7331 13.7327 20.7268 13.6544 20.721 13.576L20.691 13.082C20.6871 12.9957 20.6838 12.9094 20.681 12.823L20.669 12.282V11.718L20.681 11.177L20.691 10.917L20.721 10.424L20.741 10.189L20.786 9.746C20.955 8.326 21.286 7.5 21.667 7.5Z" fill="#0A2845"/>
</g>
<defs>
<clipPath id="clip0_662_3444">
<rect width="24" height="24" fill="white" transform="translate(0.666992)"/>
</clipPath>
</defs>
</svg>
