<svg width="95" height="88" viewBox="0 0 95 88" fill="none" xmlns="http://www.w3.org/2000/svg">
<g clip-path="url(#clip0_669_564)">
<path d="M80.2371 48.8682C76.5976 50.1891 73.8916 53.1371 71.9334 56.3142C68.6423 61.6494 67.4502 67.6299 67.4502 67.6299V48.8682L53.9229 62.3206C59.0334 62.3206 63.1791 66.4406 63.1791 71.5231C63.1791 74.4836 61.7051 77.3168 59.2789 79.0307C54.4226 82.4627 47.2122 80.3282 42.8021 77.1257C35.4467 71.7862 32.9415 61.5135 37.1083 53.4175C38.7997 50.1274 41.4737 47.3709 44.7157 45.5657V60.6831C47.1888 53.3705 53.4722 47.5534 61.5685 44.7862C63.239 44.2172 64.988 43.7772 66.7948 43.48C68.0016 43.2824 69.2231 43.1828 70.4447 43.1828H84.7007L92.7137 35.2142H82.6611L93.1813 24.7522C85.8581 11.8479 71.9417 3.13603 55.9795 3.13603C55.0057 3.13603 54.04 3.16788 53.0835 3.23372C53.0835 3.23372 25.947 -9.77254 0.318359 18.9202C0.48708 18.8693 8.58359 16.4014 18.4463 18.9202C18.4463 18.9202 23.6126 11.7247 34.8892 8.66855C21.9873 15.9724 13.2864 29.7708 13.2864 45.5889C13.2864 56.7477 17.7949 67.6131 25.7078 75.5262C38.0202 87.8358 61.3294 93.7487 74.1909 78.9923C79.1265 73.3284 85.3007 61.8362 94.7642 63.3589C94.7686 63.3486 94.7747 63.3378 94.779 63.3248L80.2392 48.8661L80.2371 48.8682ZM77.3215 17.6035C80.3841 17.2998 82.9387 19.8377 82.6355 22.8833C82.4112 25.1367 80.5806 26.9568 78.3149 27.1819C75.2524 27.4856 72.6978 24.9498 73.001 21.9063C73.2231 19.6529 75.0559 17.8286 77.3215 17.6056V17.6035ZM31.5426 23.5247H57.955L55.9496 23.9091C44.2715 26.1455 34.8422 34.7066 31.5426 46.0712V23.5247Z" fill="white"/>
</g>
<defs>
<clipPath id="clip0_669_564">
<rect width="95" height="88" fill="white"/>
</clipPath>
</defs>
</svg>
