<svg width="25" height="24" viewBox="0 0 25 24" fill="none" xmlns="http://www.w3.org/2000/svg">
<path d="M12.333 2C6.81301 2 2.33301 6.48 2.33301 12C2.33301 17.52 6.81301 22 12.333 22C17.853 22 22.333 17.52 22.333 12C22.333 6.48 17.853 2 12.333 2ZM16.973 8.8C16.823 10.38 16.173 14.22 15.843 15.99C15.703 16.74 15.423 16.99 15.163 17.02C14.583 17.07 14.143 16.64 13.583 16.27C12.703 15.69 12.203 15.33 11.353 14.77C10.363 14.12 11.003 13.76 11.573 13.18C11.723 13.03 14.283 10.7 14.333 10.49C14.34 10.4582 14.339 10.4252 14.3303 10.3938C14.3216 10.3624 14.3054 10.3337 14.283 10.31C14.223 10.26 14.143 10.28 14.073 10.29C13.983 10.31 12.583 11.24 9.85301 13.08C9.45301 13.35 9.09301 13.49 8.77301 13.48C8.41301 13.47 7.73301 13.28 7.22301 13.11C6.59301 12.91 6.10301 12.8 6.14301 12.45C6.16301 12.27 6.41301 12.09 6.88301 11.9C9.80301 10.63 11.743 9.79 12.713 9.39C15.493 8.23 16.063 8.03 16.443 8.03C16.523 8.03 16.713 8.05 16.833 8.15C16.933 8.23 16.963 8.34 16.973 8.42C16.963 8.48 16.983 8.66 16.973 8.8Z" fill="#0A2845"/>
</svg>
