<svg width="150" height="181" viewBox="0 0 150 181" fill="none" xmlns="http://www.w3.org/2000/svg">
<path fill-rule="evenodd" clip-rule="evenodd" d="M33.5587 80.4248L75.1376 122.75L116.272 80.8769L150 115.209L110.813 155.099L100.732 145.111L130.106 115.209L116.272 101.127L75.1376 143L33.5587 100.675L19.8932 114.586L49.7142 144.942L39.6333 154.931L0 114.586L33.5587 80.4248Z" fill="#0A2845"/>
<path fill-rule="evenodd" clip-rule="evenodd" d="M116.441 100.674L74.8624 58.3494L33.7278 100.222L0.000516272 65.8898L39.187 26L49.2679 35.9884L19.8937 65.8898L33.7278 79.9724L74.8624 38.099L116.441 80.4242L130.107 66.513L100.286 36.1568L110.367 26.1684L150 66.513L116.441 100.674Z" fill="#0A2845"/>
<path fill-rule="evenodd" clip-rule="evenodd" d="M68.6557 154.105V127.438H82.2334V154.105H68.6557Z" fill="#0A2845"/>
<path fill-rule="evenodd" clip-rule="evenodd" d="M68.6557 53.6608V26.9944H82.2334V53.6608H68.6557Z" fill="#0A2845"/>
</svg>
