<svg width="33" height="32" viewBox="0 0 33 32" fill="none" xmlns="http://www.w3.org/2000/svg">
<path d="M16.5947 32C25.4313 32 32.5947 24.8366 32.5947 16C32.5947 7.16344 25.4313 0 16.5947 0C7.75817 0 0.594727 7.16344 0.594727 16C0.594727 24.8366 7.75817 32 16.5947 32Z" fill="black"/>
<path d="M11.1289 13.6089L16.6756 11.0311V4L11.1289 13.6089Z" fill="#FF596E"/>
<path d="M16.6755 11.0312V16.6401L22.2222 13.609L16.6755 11.0312Z" fill="#FF596E"/>
<path d="M16.6756 11.0312V16.6401L11.1289 13.609L16.6756 11.0312Z" fill="#800010"/>
<path d="M22.2222 13.6089L16.6755 11.0311V4L22.2222 13.6089Z" fill="#800010"/>
<path d="M16.6755 18.7993V24.7726L11.0222 15.7148L16.6755 18.7993Z" fill="#FF596E"/>
<path d="M16.6755 18.7993V24.7726L22.3289 15.7148L16.6755 18.7993Z" fill="#800010"/>
<path d="M23.2622 17.0766L24.5422 20.6766L27.3511 15.9922L23.2622 17.0766Z" fill="#800010"/>
<path d="M24.5422 20.6766L27.3511 19.8411V15.9922L24.5422 20.6766Z" fill="#FF596E"/>
<path d="M27.3511 19.8398L23.2623 26.6665L20.16 27.9998L24.5423 20.6754L27.3511 19.8398Z" fill="#800010"/>
<path d="M6 19.8398L10.0889 26.6665L13.1911 27.9998L8.80889 20.6754L6 19.8398Z" fill="#FF596E"/>
<path d="M16.6755 27.9987L10.0888 17.0742L8.80884 20.6742L13.1911 27.9987H16.6755Z" fill="#800010"/>
<path d="M10.0889 17.0766L8.80889 20.6766L6 15.9922L10.0889 17.0766Z" fill="#FF596E"/>
<path d="M8.80889 20.6766L6 19.8411V15.9922L8.80889 20.6766Z" fill="#800010"/>
<path d="M16.6755 27.9987L23.2622 17.0742L24.5422 20.6742L20.16 27.9987H16.6755Z" fill="#FF596E"/>
</svg>
